<svg width="100" height="94" viewBox="0 0 100 94" fill="none" xmlns="http://www.w3.org/2000/svg">
<path d="M92.4107 8.27322C89.7882 5.65032 86.6748 3.56969 83.2482 2.15016C79.8215 0.730628 76.1489 0 72.4398 0C68.7308 0 65.0581 0.730628 61.6315 2.15016C58.2049 3.56969 55.0915 5.65032 52.469 8.27322L49.9997 10.7451L47.5303 8.27571C44.9079 5.65281 41.7945 3.57218 38.3679 2.15265C34.9412 0.733117 31.2685 0.00248858 27.5595 0.00248858C23.8505 0.00248858 20.1778 0.733117 16.7512 2.15265C13.3246 3.57218 10.2112 5.65281 7.58873 8.27571C-0.879028 16.741 -2.35685 29.7826 3.64156 43.1646C10.9525 59.4824 45.1924 90.8398 46.6473 92.1668C47.5642 93.0029 48.7603 93.4664 50.0012 93.4664C51.242 93.4664 52.4381 93.0029 53.355 92.1668C54.8085 90.8398 89.0483 59.4824 96.3608 43.1622C102.356 29.7801 100.878 16.7385 92.4107 8.27322ZM87.2778 39.0891C82.4496 49.8554 61.1503 71.197 49.9997 81.6966C38.85 71.197 17.5532 49.8629 12.7215 39.0891C10.6897 34.5466 6.80129 23.1361 14.6274 15.3099C16.3257 13.6116 18.3418 12.2645 20.5607 11.3453C22.7796 10.4262 25.1578 9.95315 27.5595 9.95315C29.9613 9.95315 32.3395 10.4262 34.5584 11.3453C36.7773 12.2645 38.7934 13.6116 40.4916 15.3099L46.4806 21.3004C46.9426 21.7628 47.4912 22.1296 48.095 22.3799C48.6988 22.6302 49.346 22.759 49.9997 22.759C50.6533 22.759 51.3006 22.6302 51.9044 22.3799C52.5082 22.1296 53.0568 21.7628 53.5188 21.3004L59.5067 15.3119C62.9917 11.9878 67.6228 10.1333 72.4388 10.1333C77.2549 10.1333 81.886 11.9878 85.3709 15.3119C93.1981 23.1391 89.3097 34.5486 87.2778 39.0891Z" fill="#FA4706"/>
</svg>
