<svg width="100" height="94" viewBox="0 0 100 94" fill="none" xmlns="http://www.w3.org/2000/svg">
<path d="M83.2482 2.15016C86.6748 3.56969 89.7882 5.65032 92.4107 8.27322C100.878 16.7385 102.356 29.7801 96.3608 43.1622C89.0483 59.4824 54.8085 90.8398 53.355 92.1668C52.4381 93.0029 51.242 93.4664 50.0012 93.4664C48.7603 93.4664 47.5642 93.0029 46.6473 92.1668C45.1924 90.8398 10.9525 59.4825 3.64156 43.1646C-2.35685 29.7826 -0.879028 16.741 7.58873 8.27571C10.2112 5.65281 13.3246 3.57218 16.7512 2.15265C20.1778 0.733117 23.8505 0.00248858 27.5595 0.00248858C31.2685 0.00248858 34.9412 0.733117 38.3679 2.15265C41.7945 3.57218 44.9079 5.65281 47.5303 8.27571L49.9997 10.7451L52.469 8.27322C55.0915 5.65032 58.2049 3.56969 61.6315 2.15016C65.0581 0.730628 68.7308 0 72.4398 0C76.1489 0 79.8215 0.730628 83.2482 2.15016Z" fill="#FA4706"/>
</svg>
